<svg width="159" height="37" viewBox="0 0 159 37" fill="none" xmlns="http://www.w3.org/2000/svg">
<path d="M16.72 10.548V15.444H6.28V21.024H14.344V25.704H6.28V36H0.124V10.548H16.72ZM19.3058 10.26C19.3058 9.324 19.6418 8.556 20.3138 7.956C20.9858 7.332 21.8738 7.02 22.9778 7.02C24.0818 7.02 24.9698 7.332 25.6418 7.956C26.3138 8.556 26.6498 9.324 26.6498 10.26C26.6498 11.172 26.3138 11.94 25.6418 12.564C24.9698 13.164 24.0818 13.464 22.9778 13.464C21.8738 13.464 20.9858 13.164 20.3138 12.564C19.6418 11.94 19.3058 11.172 19.3058 10.26ZM26.0378 15.912V36H19.8818V15.912H26.0378ZM41.6641 30.708V36H38.8921C36.5401 36 34.7041 35.424 33.3841 34.272C32.0881 33.096 31.4401 31.164 31.4401 28.476V21.096H28.7401V15.912H31.4401V10.98H37.5961V15.912H41.6281V21.096H37.5961V28.584C37.5961 29.376 37.7521 29.928 38.0641 30.24C38.4001 30.552 38.9521 30.708 39.7201 30.708H41.6641ZM57.868 15.696C60.172 15.696 61.996 16.464 63.34 18C64.708 19.536 65.392 21.648 65.392 24.336V36H59.236V25.056C59.236 23.712 58.876 22.668 58.156 21.924C57.46 21.156 56.524 20.772 55.348 20.772C54.1 20.772 53.104 21.168 52.36 21.96C51.64 22.752 51.28 23.88 51.28 25.344V36H45.124V15.912H51.28V19.584C51.856 18.384 52.708 17.436 53.836 16.74C54.988 16.044 56.332 15.696 57.868 15.696ZM88.5321 25.416C88.5321 25.92 88.4721 26.472 88.3521 27.072H74.4201C74.4921 28.584 74.8761 29.676 75.5721 30.348C76.2681 30.996 77.1561 31.32 78.2361 31.32C79.1481 31.32 79.9041 31.092 80.5041 30.636C81.1041 30.18 81.5001 29.592 81.6921 28.872H88.2081C87.9441 30.288 87.3681 31.56 86.4801 32.688C85.5921 33.792 84.4641 34.668 83.0961 35.316C81.7281 35.94 80.2041 36.252 78.5241 36.252C76.5561 36.252 74.8041 35.844 73.2681 35.028C71.7561 34.188 70.5681 32.988 69.7041 31.428C68.8401 29.868 68.4081 28.044 68.4081 25.956C68.4081 23.844 68.8281 22.02 69.6681 20.484C70.5321 18.924 71.7321 17.736 73.2681 16.92C74.8041 16.08 76.5561 15.66 78.5241 15.66C80.5161 15.66 82.2681 16.068 83.7801 16.884C85.2921 17.7 86.4561 18.852 87.2721 20.34C88.1121 21.804 88.5321 23.496 88.5321 25.416ZM82.3041 24.48C82.3281 23.16 81.9681 22.176 81.2241 21.528C80.5041 20.856 79.6041 20.52 78.5241 20.52C77.3961 20.52 76.4601 20.856 75.7161 21.528C74.9721 22.2 74.5521 23.184 74.4561 24.48H82.3041ZM99.0492 15.66C101.593 15.66 103.621 16.296 105.133 17.568C106.669 18.84 107.629 20.52 108.013 22.608H102.253C102.085 21.792 101.701 21.156 101.101 20.7C100.525 20.22 99.7932 19.98 98.9052 19.98C98.2092 19.98 97.6812 20.136 97.3212 20.448C96.9612 20.736 96.7812 21.156 96.7812 21.708C96.7812 22.332 97.1052 22.8 97.7532 23.112C98.4252 23.424 99.4692 23.736 100.885 24.048C102.421 24.408 103.681 24.78 104.665 25.164C105.649 25.524 106.501 26.124 107.221 26.964C107.941 27.804 108.301 28.932 108.301 30.348C108.301 31.5 107.989 32.52 107.365 33.408C106.741 34.296 105.841 34.992 104.665 35.496C103.489 36 102.097 36.252 100.489 36.252C97.7772 36.252 95.6052 35.652 93.9732 34.452C92.3412 33.252 91.3452 31.536 90.9852 29.304H96.9252C97.0212 30.168 97.3812 30.828 98.0052 31.284C98.6532 31.74 99.4812 31.968 100.489 31.968C101.185 31.968 101.713 31.812 102.073 31.5C102.433 31.164 102.613 30.732 102.613 30.204C102.613 29.508 102.277 29.016 101.605 28.728C100.957 28.416 99.8892 28.092 98.4012 27.756C96.9132 27.444 95.6892 27.108 94.7292 26.748C93.7692 26.388 92.9412 25.812 92.2452 25.02C91.5492 24.204 91.2012 23.1 91.2012 21.708C91.2012 19.908 91.8852 18.456 93.2532 17.352C94.6212 16.224 96.5532 15.66 99.0492 15.66ZM123.086 30.708V36H120.314C117.962 36 116.126 35.424 114.806 34.272C113.51 33.096 112.862 31.164 112.862 28.476V21.096H110.162V15.912H112.862V10.98H119.018V15.912H123.05V21.096H119.018V28.584C119.018 29.376 119.174 29.928 119.486 30.24C119.822 30.552 120.374 30.708 121.142 30.708H123.086Z" fill="#1D1617"/>
<path d="M148.822 36L141.372 25L134.972 36H125.172L136.472 17.8L124.822 0.649999H134.972L142.222 11.3L148.472 0.649999H158.222L147.072 18.45L158.972 36H148.822Z" fill="url(#paint0_linear_426_154)"/>
<defs>
<linearGradient id="paint0_linear_426_154" x1="295" y1="68.4074" x2="-56.2744" y2="-55.1187" gradientUnits="userSpaceOnUse">
<stop stop-color="#CC8FED"/>
<stop offset="1" stop-color="#9DCEFF"/>
</linearGradient>
</defs>
</svg>
